{"title":"The Weeknd - Earned It (Fifty Shades of Grey)","uid":11717057,"size":99416525,"categoryP":"video","categoryS":"music_videos","magnet":"?xt=urn:btih:e1c56ba32d37e9e629bf01a5c2b1686d26c98844&amp;dn=The+Weeknd+-+Earned+It+%28Fifty+Shades+of+Grey%29&amp;tr=udp%3A%2F%2Ftracker.openbittorrent.com%3A80&amp;tr=udp%3A%2F%2Fopen.demonii.com%3A1337&amp;tr=udp%3A%2F%2Ftracker.coppersurfer.tk%3A6969&amp;tr=udp%3A%2F%2Fexodus.desync.com%3A6969","seeders":14,"leechers":0,"uploader":"MeRaDil","files":1,"time":1424625642,"description":"THE WEEKND - EARNED IT (from FIFTY SHADES OF GREY)\n\n &lt;a href=&quot;\nhttp://gifyu.com/images/weeknd.png&quot; rel=&quot;nofollow&quot; target=&quot;_NEW&quot;&gt;\nhttp://gifyu.com/images/weeknd.png&lt;/a&gt;\n &lt;a href=&quot;\nhttp://gifyu.com/images/TheWeeknd.png&quot; rel=&quot;nofollow&quot; target=&quot;_NEW&quot;&gt;\nhttp://gifyu.com/images/TheWeeknd.png&lt;/a&gt;\n\nGeneral\nThe Weeknd - Earned It (Fifty Shades of Grey)\nFormat                      : MPEG-4\nFormat profile              : Base Media\nCodec ID                    : isom\nFile size                   : 94.8 MiB\nDuration                    : 4mn 35s\nOverall bit rate            : 2 883 Kbps\nMusicVid name               : Earned It (Fifty Shades of Grey)\nAlbum                       : OST.Fifty Shades of Grey\nPerformer                   : The Weeknd\nGenre                       : Soundtrack\nContentType                 : Music Video\nRecorded date               : 2015\nCopyright                   : The Weeknd\nCover                       : Yes\nComment                     : from the movie  Fifty Shades of Grey\nRating                      : Explicit\nMake                        : MeRaDil\nRelease                     : Canada . january 21 . 2015\nPart_ID                     : Earned It (Fifty Shades of Grey)\n\nVideo\nID                          : 1\nFormat                      : AVC\nFormat/Info                 : Advanced Video Codec\nFormat profile              : &lt;a class=&quot;__cf_email__&quot; href=&quot;/cdn-cgi/l/email-protection&quot; data-cfemail=&quot;efa7868887afa3dbc1df&quot;&gt;[email&amp;#160;protected]&lt;/a&gt;&lt;script cf-hash='f9e31' type=&quot;text/javascript&quot;&gt;\n/* &lt;![CDATA[ */!function(){try{var t=&quot;currentScript&quot;in document?document.currentScript:function(){for(var t=document.getElementsByTagName(&quot;script&quot;),e=t.length;e--;)if(t[e].getAttribute(&quot;cf-hash&quot;))return t[e]}();if(t&amp;&amp;t.previousSibling){var e,r,n,i,c=t.previousSibling,a=c.getAttribute(&quot;data-cfemail&quot;);if(a){for(e=&quot;&quot;,r=parseInt(a.substr(0,2),16),n=2;a.length-n;n+=2)i=parseInt(a.substr(n,2),16)^r,e+=String.fromCharCode(i);e=document.createTextNode(e),c.parentNode.replaceChild(e,c)}}}catch(u){}}();/* ]]&gt; */&lt;/script&gt;\nFormat settings, CABAC      : Yes\nFormat settings, ReFrames   : 2 frames\nCodec ID                    : avc1\nCodec ID/Info               : Advanced Video Coding\nDuration                    : 4mn 35s\nBit rate                    : 2 621 Kbps\nWidth                       : 1 920 pixels\nHeight                      : 1 080 pixels\nDisplay aspect ratio        : 16:9\nFrame rate mode             : Variable\nFrame rate                  : 23.976 fps\nMinimum frame rate          : 23.974 fps\nMaximum frame rate          : 23.981 fps\nColor space                 : YUV\nChroma subsampling          : 4:2:0\nBit depth                   : 8 bits\nScan type                   : Progressive\nBits/(Pixel*Frame)          : 0.053\nStream size                 : 86.2 MiB (91%)\n\nAudio\nID                          : 2\nFormat                      : AAC\nFormat/Info                 : Advanced Audio Codec\nFormat profile              : LC\nCodec ID                    : 40\nDuration                    : 4mn 35s\nBit rate mode               : Constant\nBit rate                    : 256 Kbps\nChannel(s)                  : 2 channels\nChannel positions           : Front: L R\nSampling rate               : 44.1 KHz\nCompression mode            : Lossy\nStream size                 : 8.42 MiB (9%)\n &lt;a href=&quot;\nhttps://thepiratebay.se/user/MeRaDil&quot; rel=&quot;nofollow&quot; target=&quot;_NEW&quot;&gt;\nhttps://thepiratebay.se/user/MeRaDil&lt;/a&gt;\n\nThe Weeknd * Fifty Shades of Grey * Promo * RnB\n\n:)","torrent":{"xt":"urn:btih:e1c56ba32d37e9e629bf01a5c2b1686d26c98844","amp;dn":"The+Weeknd+-+Earned+It+%28Fifty+Shades+of+Grey%29","amp;tr":["udp%3A%2F%2Ftracker.openbittorrent.com%3A80","udp%3A%2F%2Fopen.demonii.com%3A1337","udp%3A%2F%2Ftracker.coppersurfer.tk%3A6969","udp%3A%2F%2Fexodus.desync.com%3A6969"],"infoHash":"e1c56ba32d37e9e629bf01a5c2b1686d26c98844","infoHashBuffer":{"type":"Buffer","data":[225,197,107,163,45,55,233,230,41,191,1,165,194,177,104,109,38,201,136,68]},"announce":[],"urlList":[]}}